<svg width="66" height="49" viewBox="0 0 66 49" fill="none" xmlns="http://www.w3.org/2000/svg">
<path d="M0.98877 8.48596C0.98877 6.36349 1.83192 4.32794 3.33274 2.82712C4.83356 1.3263 6.8691 0.483154 8.99158 0.483154H57.0084C59.1309 0.483154 61.1665 1.3263 62.6673 2.82712C64.1681 4.32794 65.0112 6.36349 65.0112 8.48596V40.4972C65.0112 42.6197 64.1681 44.6552 62.6673 46.156C61.1665 47.6569 59.1309 48.5 57.0084 48.5H8.99158C6.8691 48.5 4.83356 47.6569 3.33274 46.156C1.83192 44.6552 0.98877 42.6197 0.98877 40.4972V8.48596ZM8.99158 4.48456C7.93034 4.48456 6.91257 4.90613 6.16216 5.65654C5.41175 6.40695 4.99017 7.42472 4.99017 8.48596V12.4874H61.0098V8.48596C61.0098 7.42472 60.5883 6.40695 59.8378 5.65654C59.0874 4.90613 58.0697 4.48456 57.0084 4.48456H8.99158ZM61.0098 20.4902H4.99017V40.4972C4.99017 41.5584 5.41175 42.5762 6.16216 43.3266C6.91257 44.077 7.93034 44.4986 8.99158 44.4986H57.0084C58.0697 44.4986 59.0874 44.077 59.8378 43.3266C60.5883 42.5762 61.0098 41.5584 61.0098 40.4972V20.4902Z" fill="#00031A"/>
</svg>
