<svg width="23" height="24" viewBox="0 0 23 24" fill="none" xmlns="http://www.w3.org/2000/svg">
<path d="M20.5645 0.629333H2.69634C1.32577 0.629333 0.259766 1.7461 0.259766 3.06591V20.9341C0.259766 22.3047 1.32577 23.3707 2.69634 23.3707H9.65072V15.6549H6.45272V12H9.65072V9.25886C9.65072 6.11162 11.5289 4.33495 14.3716 4.33495C15.7929 4.33495 17.2142 4.58876 17.2142 4.58876V7.68524H15.6406C14.067 7.68524 13.5594 8.64972 13.5594 9.66495V12H17.062L16.5036 15.6549H13.5594V23.3707H20.5645C21.8843 23.3707 23.0011 22.3047 23.0011 20.9341V3.06591C23.0011 1.7461 21.8843 0.629333 20.5645 0.629333Z" fill="white"/>
</svg>
