<svg width="412" height="296" viewBox="0 0 412 296" fill="none" xmlns="http://www.w3.org/2000/svg">
<path d="M0.998047 8C0.998047 3.58172 4.57977 0 8.99805 0H411.002V296H8.99804C4.57976 296 0.998047 292.418 0.998047 288V8Z" fill="#00031A"/>
<path d="M58.846 86.036L51.934 60.8H55.174L60.61 82.436L66.802 60.8H70.15L76.162 82.436L81.67 60.8H84.91L77.854 86H74.398L68.386 65.192L62.23 86L58.846 86.036ZM94.4866 86.432C92.7826 86.432 91.2706 86.048 89.9506 85.28C88.6306 84.488 87.5866 83.396 86.8186 82.004C86.0746 80.612 85.7026 78.968 85.7026 77.072C85.7026 75.2 86.0746 73.568 86.8186 72.176C87.5626 70.76 88.5946 69.668 89.9146 68.9C91.2586 68.108 92.8066 67.712 94.5586 67.712C96.2866 67.712 97.7746 68.108 99.0226 68.9C100.295 69.668 101.267 70.688 101.939 71.96C102.611 73.232 102.947 74.6 102.947 76.064C102.947 76.328 102.935 76.592 102.911 76.856C102.911 77.12 102.911 77.42 102.911 77.756H88.6906C88.7626 79.124 89.0746 80.264 89.6266 81.176C90.2026 82.064 90.9106 82.736 91.7506 83.192C92.6146 83.648 93.5266 83.876 94.4866 83.876C95.7346 83.876 96.7786 83.588 97.6186 83.012C98.4586 82.436 99.0706 81.656 99.4546 80.672H102.443C101.963 82.328 101.039 83.708 99.6706 84.812C98.3266 85.892 96.5986 86.432 94.4866 86.432ZM94.4866 70.268C93.0466 70.268 91.7626 70.712 90.6346 71.6C89.5306 72.464 88.8946 73.736 88.7266 75.416H99.9586C99.8866 73.808 99.3346 72.548 98.3026 71.636C97.2706 70.724 95.9986 70.268 94.4866 70.268ZM122.998 86.432C120.886 86.432 119.206 85.796 117.958 84.524C116.71 83.228 116.086 81.248 116.086 78.584V68.144H119.11V78.26C119.11 81.98 120.634 83.84 123.682 83.84C125.242 83.84 126.526 83.288 127.534 82.184C128.566 81.056 129.082 79.46 129.082 77.396V68.144H132.106V86H129.37L129.154 82.796C128.602 83.924 127.774 84.812 126.67 85.46C125.59 86.108 124.366 86.432 122.998 86.432ZM137.084 93.92V68.144H139.82L140.108 71.096C140.684 70.232 141.5 69.452 142.556 68.756C143.636 68.06 145.004 67.712 146.66 67.712C148.436 67.712 149.984 68.12 151.304 68.936C152.624 69.752 153.644 70.868 154.364 72.284C155.108 73.7 155.48 75.308 155.48 77.108C155.48 78.908 155.108 80.516 154.364 81.932C153.644 83.324 152.612 84.428 151.268 85.244C149.948 86.036 148.4 86.432 146.624 86.432C145.16 86.432 143.852 86.132 142.7 85.532C141.572 84.932 140.708 84.092 140.108 83.012V93.92H137.084ZM146.3 83.804C147.5 83.804 148.556 83.528 149.468 82.976C150.38 82.4 151.1 81.608 151.628 80.6C152.156 79.592 152.42 78.416 152.42 77.072C152.42 75.728 152.156 74.552 151.628 73.544C151.1 72.536 150.38 71.756 149.468 71.204C148.556 70.628 147.5 70.34 146.3 70.34C145.1 70.34 144.044 70.628 143.132 71.204C142.22 71.756 141.5 72.536 140.972 73.544C140.444 74.552 140.18 75.728 140.18 77.072C140.18 78.416 140.444 79.592 140.972 80.6C141.5 81.608 142.22 82.4 143.132 82.976C144.044 83.528 145.1 83.804 146.3 83.804ZM165.972 80.384C164.964 80.384 164.04 80.252 163.2 79.988L161.4 81.68C161.664 81.872 161.988 82.04 162.372 82.184C162.78 82.304 163.356 82.424 164.1 82.544C164.844 82.64 165.888 82.748 167.232 82.868C169.632 83.036 171.348 83.588 172.38 84.524C173.412 85.46 173.928 86.684 173.928 88.196C173.928 89.228 173.64 90.212 173.064 91.148C172.512 92.084 171.648 92.852 170.472 93.452C169.32 94.052 167.832 94.352 166.008 94.352C164.4 94.352 162.972 94.136 161.724 93.704C160.476 93.296 159.504 92.66 158.808 91.796C158.112 90.956 157.764 89.888 157.764 88.592C157.764 87.92 157.944 87.188 158.304 86.396C158.664 85.628 159.336 84.896 160.32 84.2C159.792 83.984 159.336 83.756 158.952 83.516C158.592 83.252 158.256 82.964 157.944 82.652V81.824L161.004 78.8C159.588 77.6 158.88 76.016 158.88 74.048C158.88 72.872 159.156 71.804 159.708 70.844C160.26 69.884 161.064 69.128 162.12 68.576C163.176 68 164.46 67.712 165.972 67.712C167.004 67.712 167.94 67.856 168.78 68.144H175.368V70.412L172.02 70.556C172.716 71.564 173.064 72.728 173.064 74.048C173.064 75.224 172.776 76.292 172.2 77.252C171.648 78.212 170.844 78.98 169.788 79.556C168.756 80.108 167.484 80.384 165.972 80.384ZM165.972 77.9C167.244 77.9 168.252 77.576 168.996 76.928C169.764 76.256 170.148 75.296 170.148 74.048C170.148 72.824 169.764 71.888 168.996 71.24C168.252 70.568 167.244 70.232 165.972 70.232C164.676 70.232 163.644 70.568 162.876 71.24C162.132 71.888 161.76 72.824 161.76 74.048C161.76 75.296 162.132 76.256 162.876 76.928C163.644 77.576 164.676 77.9 165.972 77.9ZM160.716 88.304C160.716 89.504 161.22 90.392 162.228 90.968C163.236 91.568 164.496 91.868 166.008 91.868C167.496 91.868 168.684 91.544 169.572 90.896C170.484 90.248 170.94 89.384 170.94 88.304C170.94 87.536 170.628 86.864 170.004 86.288C169.38 85.736 168.228 85.412 166.548 85.316C165.228 85.22 164.088 85.1 163.128 84.956C162.144 85.484 161.496 86.048 161.184 86.648C160.872 87.272 160.716 87.824 160.716 88.304ZM178.779 86V68.144H181.515L181.767 71.564C182.319 70.388 183.159 69.452 184.287 68.756C185.415 68.06 186.807 67.712 188.463 67.712V70.88H187.635C186.579 70.88 185.607 71.072 184.719 71.456C183.831 71.816 183.123 72.44 182.595 73.328C182.067 74.216 181.803 75.44 181.803 77V86H178.779ZM197.797 86.432C196.309 86.432 195.073 86.18 194.089 85.676C193.105 85.172 192.373 84.5 191.893 83.66C191.413 82.82 191.173 81.908 191.173 80.924C191.173 79.1 191.869 77.696 193.261 76.712C194.653 75.728 196.549 75.236 198.949 75.236H203.773V75.02C203.773 73.46 203.365 72.284 202.549 71.492C201.733 70.676 200.641 70.268 199.273 70.268C198.097 70.268 197.077 70.568 196.213 71.168C195.373 71.744 194.845 72.596 194.629 73.724H191.533C191.653 72.428 192.085 71.336 192.829 70.448C193.597 69.56 194.545 68.888 195.673 68.432C196.801 67.952 198.001 67.712 199.273 67.712C201.769 67.712 203.641 68.384 204.889 69.728C206.161 71.048 206.797 72.812 206.797 75.02V86H204.097L203.917 82.796C203.413 83.804 202.669 84.668 201.685 85.388C200.725 86.084 199.429 86.432 197.797 86.432ZM198.265 83.876C199.417 83.876 200.401 83.576 201.217 82.976C202.057 82.376 202.693 81.596 203.125 80.636C203.557 79.676 203.773 78.668 203.773 77.612V77.576H199.201C197.425 77.576 196.165 77.888 195.421 78.512C194.701 79.112 194.341 79.868 194.341 80.78C194.341 81.716 194.677 82.472 195.349 83.048C196.045 83.6 197.017 83.876 198.265 83.876ZM219.434 86.432C217.658 86.432 216.098 86.024 214.754 85.208C213.434 84.392 212.402 83.276 211.658 81.86C210.938 80.444 210.578 78.836 210.578 77.036C210.578 75.236 210.95 73.64 211.694 72.248C212.438 70.832 213.47 69.728 214.79 68.936C216.11 68.12 217.67 67.712 219.47 67.712C220.934 67.712 222.23 68.012 223.358 68.612C224.486 69.212 225.362 70.052 225.986 71.132V60.08H229.01V86H226.274L225.986 83.048C225.41 83.912 224.582 84.692 223.502 85.388C222.422 86.084 221.066 86.432 219.434 86.432ZM219.758 83.804C220.958 83.804 222.014 83.528 222.926 82.976C223.862 82.4 224.582 81.608 225.086 80.6C225.614 79.592 225.878 78.416 225.878 77.072C225.878 75.728 225.614 74.552 225.086 73.544C224.582 72.536 223.862 71.756 222.926 71.204C222.014 70.628 220.958 70.34 219.758 70.34C218.582 70.34 217.526 70.628 216.59 71.204C215.678 71.756 214.958 72.536 214.43 73.544C213.926 74.552 213.674 75.728 213.674 77.072C213.674 78.416 213.926 79.592 214.43 80.6C214.958 81.608 215.678 82.4 216.59 82.976C217.526 83.528 218.582 83.804 219.758 83.804ZM241.967 86.432C240.263 86.432 238.751 86.048 237.431 85.28C236.111 84.488 235.067 83.396 234.299 82.004C233.555 80.612 233.183 78.968 233.183 77.072C233.183 75.2 233.555 73.568 234.299 72.176C235.043 70.76 236.075 69.668 237.395 68.9C238.739 68.108 240.287 67.712 242.039 67.712C243.767 67.712 245.255 68.108 246.503 68.9C247.775 69.668 248.747 70.688 249.419 71.96C250.091 73.232 250.427 74.6 250.427 76.064C250.427 76.328 250.415 76.592 250.391 76.856C250.391 77.12 250.391 77.42 250.391 77.756H236.171C236.243 79.124 236.555 80.264 237.107 81.176C237.683 82.064 238.391 82.736 239.231 83.192C240.095 83.648 241.007 83.876 241.967 83.876C243.215 83.876 244.259 83.588 245.099 83.012C245.939 82.436 246.551 81.656 246.935 80.672H249.923C249.443 82.328 248.519 83.708 247.151 84.812C245.807 85.892 244.079 86.432 241.967 86.432ZM241.967 70.268C240.527 70.268 239.243 70.712 238.115 71.6C237.011 72.464 236.375 73.736 236.207 75.416H247.439C247.367 73.808 246.815 72.548 245.783 71.636C244.751 70.724 243.479 70.268 241.967 70.268ZM262.535 86.432C260.759 86.432 259.199 86.024 257.855 85.208C256.535 84.392 255.503 83.276 254.759 81.86C254.039 80.444 253.679 78.836 253.679 77.036C253.679 75.236 254.051 73.64 254.795 72.248C255.539 70.832 256.571 69.728 257.891 68.936C259.211 68.12 260.771 67.712 262.571 67.712C264.035 67.712 265.331 68.012 266.459 68.612C267.587 69.212 268.463 70.052 269.087 71.132V60.08H272.111V86H269.375L269.087 83.048C268.511 83.912 267.683 84.692 266.603 85.388C265.523 86.084 264.167 86.432 262.535 86.432ZM262.859 83.804C264.059 83.804 265.115 83.528 266.027 82.976C266.963 82.4 267.683 81.608 268.187 80.6C268.715 79.592 268.979 78.416 268.979 77.072C268.979 75.728 268.715 74.552 268.187 73.544C267.683 72.536 266.963 71.756 266.027 71.204C265.115 70.628 264.059 70.34 262.859 70.34C261.683 70.34 260.627 70.628 259.691 71.204C258.779 71.756 258.059 72.536 257.531 73.544C257.027 74.552 256.775 75.728 256.775 77.072C256.775 78.416 257.027 79.592 257.531 80.6C258.059 81.608 258.779 82.4 259.691 82.976C260.627 83.528 261.683 83.804 262.859 83.804ZM294.704 86.432C293.024 86.432 291.512 86.048 290.168 85.28C288.824 84.512 287.756 83.432 286.964 82.04C286.196 80.624 285.812 78.968 285.812 77.072C285.812 75.176 286.208 73.532 287 72.14C287.792 70.724 288.86 69.632 290.204 68.864C291.572 68.096 293.096 67.712 294.776 67.712C296.456 67.712 297.968 68.096 299.312 68.864C300.656 69.632 301.712 70.724 302.48 72.14C303.272 73.532 303.668 75.176 303.668 77.072C303.668 78.968 303.272 80.624 302.48 82.04C301.688 83.432 300.608 84.512 299.24 85.28C297.896 86.048 296.384 86.432 294.704 86.432ZM294.704 83.84C295.736 83.84 296.696 83.588 297.584 83.084C298.472 82.58 299.192 81.824 299.744 80.816C300.296 79.808 300.572 78.56 300.572 77.072C300.572 75.584 300.296 74.336 299.744 73.328C299.216 72.32 298.508 71.564 297.62 71.06C296.732 70.556 295.784 70.304 294.776 70.304C293.744 70.304 292.784 70.556 291.896 71.06C291.008 71.564 290.288 72.32 289.736 73.328C289.184 74.336 288.908 75.584 288.908 77.072C288.908 78.56 289.184 79.808 289.736 80.816C290.288 81.824 290.996 82.58 291.86 83.084C292.748 83.588 293.696 83.84 294.704 83.84ZM314.389 86.432C312.277 86.432 310.597 85.796 309.349 84.524C308.101 83.228 307.477 81.248 307.477 78.584V68.144H310.501V78.26C310.501 81.98 312.025 83.84 315.073 83.84C316.633 83.84 317.917 83.288 318.925 82.184C319.957 81.056 320.473 79.46 320.473 77.396V68.144H323.497V86H320.761L320.545 82.796C319.993 83.924 319.165 84.812 318.061 85.46C316.981 86.108 315.757 86.432 314.389 86.432ZM328.474 86V68.144H331.21L331.462 71.564C332.014 70.388 332.854 69.452 333.982 68.756C335.11 68.06 336.502 67.712 338.158 67.712V70.88H337.33C336.274 70.88 335.302 71.072 334.414 71.456C333.526 71.816 332.818 72.44 332.29 73.328C331.762 74.216 331.498 75.44 331.498 77V86H328.474ZM60.322 134.432C58.186 134.432 56.41 133.892 54.994 132.812C53.578 131.732 52.75 130.268 52.51 128.42H55.606C55.798 129.356 56.29 130.172 57.082 130.868C57.898 131.54 58.99 131.876 60.358 131.876C61.63 131.876 62.566 131.612 63.166 131.084C63.766 130.532 64.066 129.884 64.066 129.14C64.066 128.06 63.67 127.34 62.878 126.98C62.11 126.62 61.018 126.296 59.602 126.008C58.642 125.816 57.682 125.54 56.722 125.18C55.762 124.82 54.958 124.316 54.31 123.668C53.662 122.996 53.338 122.12 53.338 121.04C53.338 119.48 53.914 118.208 55.066 117.224C56.242 116.216 57.826 115.712 59.818 115.712C61.714 115.712 63.262 116.192 64.462 117.152C65.686 118.088 66.394 119.432 66.586 121.184H63.598C63.478 120.272 63.082 119.564 62.41 119.06C61.762 118.532 60.886 118.268 59.782 118.268C58.702 118.268 57.862 118.496 57.262 118.952C56.686 119.408 56.398 120.008 56.398 120.752C56.398 121.472 56.77 122.036 57.514 122.444C58.282 122.852 59.314 123.2 60.61 123.488C61.714 123.728 62.758 124.028 63.742 124.388C64.75 124.724 65.566 125.24 66.19 125.936C66.838 126.608 67.162 127.592 67.162 128.888C67.186 130.496 66.574 131.828 65.326 132.884C64.102 133.916 62.434 134.432 60.322 134.432ZM71.482 134V108.08H74.506V119.204C75.106 118.1 75.958 117.248 77.062 116.648C78.166 116.024 79.366 115.712 80.662 115.712C82.726 115.712 84.382 116.36 85.63 117.656C86.878 118.928 87.502 120.896 87.502 123.56V134H84.514V123.884C84.514 120.164 83.014 118.304 80.014 118.304C78.454 118.304 77.146 118.868 76.09 119.996C75.034 121.1 74.506 122.684 74.506 124.748V134H71.482ZM93.9196 112.184C93.3196 112.184 92.8156 111.992 92.4076 111.608C92.0236 111.2 91.8316 110.696 91.8316 110.096C91.8316 109.52 92.0236 109.04 92.4076 108.656C92.8156 108.272 93.3196 108.08 93.9196 108.08C94.4956 108.08 94.9876 108.272 95.3956 108.656C95.8036 109.04 96.0076 109.52 96.0076 110.096C96.0076 110.696 95.8036 111.2 95.3956 111.608C94.9876 111.992 94.4956 112.184 93.9196 112.184ZM92.4076 134V116.144H95.4316V134H92.4076ZM100.697 141.92V116.144H103.433L103.721 119.096C104.297 118.232 105.113 117.452 106.169 116.756C107.249 116.06 108.617 115.712 110.273 115.712C112.049 115.712 113.597 116.12 114.917 116.936C116.237 117.752 117.257 118.868 117.977 120.284C118.721 121.7 119.093 123.308 119.093 125.108C119.093 126.908 118.721 128.516 117.977 129.932C117.257 131.324 116.225 132.428 114.881 133.244C113.561 134.036 112.013 134.432 110.237 134.432C108.773 134.432 107.465 134.132 106.313 133.532C105.185 132.932 104.321 132.092 103.721 131.012V141.92H100.697ZM109.913 131.804C111.113 131.804 112.169 131.528 113.081 130.976C113.993 130.4 114.713 129.608 115.241 128.6C115.769 127.592 116.033 126.416 116.033 125.072C116.033 123.728 115.769 122.552 115.241 121.544C114.713 120.536 113.993 119.756 113.081 119.204C112.169 118.628 111.113 118.34 109.913 118.34C108.713 118.34 107.657 118.628 106.745 119.204C105.833 119.756 105.113 120.536 104.585 121.544C104.057 122.552 103.793 123.728 103.793 125.072C103.793 126.416 104.057 127.592 104.585 128.6C105.113 129.608 105.833 130.4 106.745 130.976C107.657 131.528 108.713 131.804 109.913 131.804ZM123.302 134V116.144H126.038L126.254 118.736C126.83 117.776 127.598 117.032 128.558 116.504C129.518 115.976 130.598 115.712 131.798 115.712C133.214 115.712 134.426 116 135.434 116.576C136.466 117.152 137.258 118.028 137.81 119.204C138.434 118.124 139.286 117.272 140.366 116.648C141.47 116.024 142.658 115.712 143.93 115.712C146.066 115.712 147.77 116.36 149.042 117.656C150.314 118.928 150.95 120.896 150.95 123.56V134H147.962V123.884C147.962 122.036 147.59 120.644 146.846 119.708C146.102 118.772 145.034 118.304 143.642 118.304C142.202 118.304 141.002 118.868 140.042 119.996C139.106 121.1 138.638 122.684 138.638 124.748V134H135.614V123.884C135.614 122.036 135.242 120.644 134.498 119.708C133.754 118.772 132.686 118.304 131.294 118.304C129.878 118.304 128.69 118.868 127.73 119.996C126.794 121.1 126.326 122.684 126.326 124.748V134H123.302ZM163.533 134.432C161.829 134.432 160.317 134.048 158.997 133.28C157.677 132.488 156.633 131.396 155.865 130.004C155.121 128.612 154.749 126.968 154.749 125.072C154.749 123.2 155.121 121.568 155.865 120.176C156.609 118.76 157.641 117.668 158.961 116.9C160.305 116.108 161.853 115.712 163.605 115.712C165.333 115.712 166.821 116.108 168.069 116.9C169.341 117.668 170.313 118.688 170.985 119.96C171.657 121.232 171.993 122.6 171.993 124.064C171.993 124.328 171.981 124.592 171.957 124.856C171.957 125.12 171.957 125.42 171.957 125.756H157.737C157.809 127.124 158.121 128.264 158.673 129.176C159.249 130.064 159.957 130.736 160.797 131.192C161.661 131.648 162.573 131.876 163.533 131.876C164.781 131.876 165.825 131.588 166.665 131.012C167.505 130.436 168.117 129.656 168.501 128.672H171.489C171.009 130.328 170.085 131.708 168.717 132.812C167.373 133.892 165.645 134.432 163.533 134.432ZM163.533 118.268C162.093 118.268 160.809 118.712 159.681 119.6C158.577 120.464 157.941 121.736 157.773 123.416H169.005C168.933 121.808 168.381 120.548 167.349 119.636C166.317 118.724 165.045 118.268 163.533 118.268ZM176.002 134V116.144H178.738L178.918 119.348C179.494 118.22 180.322 117.332 181.402 116.684C182.482 116.036 183.706 115.712 185.074 115.712C187.186 115.712 188.866 116.36 190.114 117.656C191.386 118.928 192.022 120.896 192.022 123.56V134H188.998V123.884C188.998 120.164 187.462 118.304 184.39 118.304C182.854 118.304 181.57 118.868 180.538 119.996C179.53 121.1 179.026 122.684 179.026 124.748V134H176.002ZM203.659 134C202.027 134 200.743 133.604 199.807 132.812C198.871 132.02 198.403 130.592 198.403 128.528V118.7H195.307V116.144H198.403L198.799 111.86H201.427V116.144H206.683V118.7H201.427V128.528C201.427 129.656 201.655 130.424 202.111 130.832C202.567 131.216 203.371 131.408 204.523 131.408H206.395V134H203.659ZM217.365 134.432C215.229 134.432 213.453 133.892 212.037 132.812C210.621 131.732 209.793 130.268 209.553 128.42H212.649C212.841 129.356 213.333 130.172 214.125 130.868C214.941 131.54 216.033 131.876 217.401 131.876C218.673 131.876 219.609 131.612 220.209 131.084C220.809 130.532 221.109 129.884 221.109 129.14C221.109 128.06 220.713 127.34 219.921 126.98C219.153 126.62 218.061 126.296 216.645 126.008C215.685 125.816 214.725 125.54 213.765 125.18C212.805 124.82 212.001 124.316 211.353 123.668C210.705 122.996 210.381 122.12 210.381 121.04C210.381 119.48 210.957 118.208 212.109 117.224C213.285 116.216 214.869 115.712 216.861 115.712C218.757 115.712 220.305 116.192 221.505 117.152C222.729 118.088 223.437 119.432 223.629 121.184H220.641C220.521 120.272 220.125 119.564 219.453 119.06C218.805 118.532 217.929 118.268 216.825 118.268C215.745 118.268 214.905 118.496 214.305 118.952C213.729 119.408 213.441 120.008 213.441 120.752C213.441 121.472 213.813 122.036 214.557 122.444C215.325 122.852 216.357 123.2 217.653 123.488C218.757 123.728 219.801 124.028 220.785 124.388C221.793 124.724 222.609 125.24 223.233 125.936C223.881 126.608 224.205 127.592 224.205 128.888C224.229 130.496 223.617 131.828 222.369 132.884C221.145 133.916 219.477 134.432 217.365 134.432ZM238.052 134V116.144H240.788L241.004 118.736C241.58 117.776 242.348 117.032 243.308 116.504C244.268 115.976 245.348 115.712 246.548 115.712C247.964 115.712 249.176 116 250.184 116.576C251.216 117.152 252.008 118.028 252.56 119.204C253.184 118.124 254.036 117.272 255.116 116.648C256.22 116.024 257.408 115.712 258.68 115.712C260.816 115.712 262.52 116.36 263.792 117.656C265.064 118.928 265.7 120.896 265.7 123.56V134H262.712V123.884C262.712 122.036 262.34 120.644 261.596 119.708C260.852 118.772 259.784 118.304 258.392 118.304C256.952 118.304 255.752 118.868 254.792 119.996C253.856 121.1 253.388 122.684 253.388 124.748V134H250.364V123.884C250.364 122.036 249.992 120.644 249.248 119.708C248.504 118.772 247.436 118.304 246.044 118.304C244.628 118.304 243.44 118.868 242.48 119.996C241.544 121.1 241.076 122.684 241.076 124.748V134H238.052ZM276.195 134.432C274.707 134.432 273.471 134.18 272.487 133.676C271.503 133.172 270.771 132.5 270.291 131.66C269.811 130.82 269.571 129.908 269.571 128.924C269.571 127.1 270.267 125.696 271.659 124.712C273.051 123.728 274.947 123.236 277.347 123.236H282.171V123.02C282.171 121.46 281.763 120.284 280.947 119.492C280.131 118.676 279.039 118.268 277.671 118.268C276.495 118.268 275.475 118.568 274.611 119.168C273.771 119.744 273.243 120.596 273.027 121.724H269.931C270.051 120.428 270.483 119.336 271.227 118.448C271.995 117.56 272.943 116.888 274.071 116.432C275.199 115.952 276.399 115.712 277.671 115.712C280.167 115.712 282.039 116.384 283.287 117.728C284.559 119.048 285.195 120.812 285.195 123.02V134H282.495L282.315 130.796C281.811 131.804 281.067 132.668 280.083 133.388C279.123 134.084 277.827 134.432 276.195 134.432ZM276.663 131.876C277.815 131.876 278.799 131.576 279.615 130.976C280.455 130.376 281.091 129.596 281.523 128.636C281.955 127.676 282.171 126.668 282.171 125.612V125.576H277.599C275.823 125.576 274.563 125.888 273.819 126.512C273.099 127.112 272.739 127.868 272.739 128.78C272.739 129.716 273.075 130.472 273.747 131.048C274.443 131.6 275.415 131.876 276.663 131.876ZM289.732 134V116.144H292.468L292.648 119.348C293.224 118.22 294.052 117.332 295.132 116.684C296.212 116.036 297.436 115.712 298.804 115.712C300.916 115.712 302.596 116.36 303.844 117.656C305.116 118.928 305.752 120.896 305.752 123.56V134H302.728V123.884C302.728 120.164 301.192 118.304 298.12 118.304C296.584 118.304 295.3 118.868 294.268 119.996C293.26 121.1 292.756 122.684 292.756 124.748V134H289.732ZM311.75 141.92L316.178 132.272H315.134L308.042 116.144H311.318L317.222 130.04L323.486 116.144H326.618L314.918 141.92H311.75ZM53.482 182V156.08H56.506V182H53.482ZM69.4905 182.432C67.7865 182.432 66.2745 182.048 64.9545 181.28C63.6345 180.488 62.5905 179.396 61.8225 178.004C61.0785 176.612 60.7065 174.968 60.7065 173.072C60.7065 171.2 61.0785 169.568 61.8225 168.176C62.5665 166.76 63.5985 165.668 64.9185 164.9C66.2625 164.108 67.8105 163.712 69.5625 163.712C71.2905 163.712 72.7785 164.108 74.0265 164.9C75.2985 165.668 76.2705 166.688 76.9425 167.96C77.6145 169.232 77.9505 170.6 77.9505 172.064C77.9505 172.328 77.9385 172.592 77.9145 172.856C77.9145 173.12 77.9145 173.42 77.9145 173.756H63.6945C63.7665 175.124 64.0785 176.264 64.6305 177.176C65.2065 178.064 65.9145 178.736 66.7545 179.192C67.6185 179.648 68.5305 179.876 69.4905 179.876C70.7385 179.876 71.7825 179.588 72.6225 179.012C73.4625 178.436 74.0745 177.656 74.4585 176.672H77.4465C76.9665 178.328 76.0425 179.708 74.6745 180.812C73.3305 181.892 71.6025 182.432 69.4905 182.432ZM69.4905 166.268C68.0505 166.268 66.7665 166.712 65.6385 167.6C64.5345 168.464 63.8985 169.736 63.7305 171.416H74.9625C74.8905 169.808 74.3385 168.548 73.3065 167.636C72.2745 166.724 71.0025 166.268 69.4905 166.268ZM86.4035 182L79.6355 164.144H82.8035L88.1675 179.084L93.5675 164.144H96.6635L89.8955 182H86.4035ZM107.143 182.432C105.439 182.432 103.927 182.048 102.607 181.28C101.287 180.488 100.243 179.396 99.4749 178.004C98.7309 176.612 98.3589 174.968 98.3589 173.072C98.3589 171.2 98.7309 169.568 99.4749 168.176C100.219 166.76 101.251 165.668 102.571 164.9C103.915 164.108 105.463 163.712 107.215 163.712C108.943 163.712 110.431 164.108 111.679 164.9C112.951 165.668 113.923 166.688 114.595 167.96C115.267 169.232 115.603 170.6 115.603 172.064C115.603 172.328 115.591 172.592 115.567 172.856C115.567 173.12 115.567 173.42 115.567 173.756H101.347C101.419 175.124 101.731 176.264 102.283 177.176C102.859 178.064 103.567 178.736 104.407 179.192C105.271 179.648 106.183 179.876 107.143 179.876C108.391 179.876 109.435 179.588 110.275 179.012C111.115 178.436 111.727 177.656 112.111 176.672H115.099C114.619 178.328 113.695 179.708 112.327 180.812C110.983 181.892 109.255 182.432 107.143 182.432ZM107.143 166.268C105.703 166.268 104.419 166.712 103.291 167.6C102.187 168.464 101.551 169.736 101.383 171.416H112.615C112.543 169.808 111.991 168.548 110.959 167.636C109.927 166.724 108.655 166.268 107.143 166.268ZM119.611 182V156.08H122.635V182H119.611ZM134.431 182.432C132.295 182.432 130.519 181.892 129.103 180.812C127.687 179.732 126.859 178.268 126.619 176.42H129.715C129.907 177.356 130.399 178.172 131.191 178.868C132.007 179.54 133.099 179.876 134.467 179.876C135.739 179.876 136.675 179.612 137.275 179.084C137.875 178.532 138.175 177.884 138.175 177.14C138.175 176.06 137.779 175.34 136.987 174.98C136.219 174.62 135.127 174.296 133.711 174.008C132.751 173.816 131.791 173.54 130.831 173.18C129.871 172.82 129.067 172.316 128.419 171.668C127.771 170.996 127.447 170.12 127.447 169.04C127.447 167.48 128.023 166.208 129.175 165.224C130.351 164.216 131.935 163.712 133.927 163.712C135.823 163.712 137.371 164.192 138.571 165.152C139.795 166.088 140.503 167.432 140.695 169.184H137.707C137.587 168.272 137.191 167.564 136.519 167.06C135.871 166.532 134.995 166.268 133.891 166.268C132.811 166.268 131.971 166.496 131.371 166.952C130.795 167.408 130.507 168.008 130.507 168.752C130.507 169.472 130.879 170.036 131.623 170.444C132.391 170.852 133.423 171.2 134.719 171.488C135.823 171.728 136.867 172.028 137.851 172.388C138.859 172.724 139.675 173.24 140.299 173.936C140.947 174.608 141.271 175.592 141.271 176.888C141.295 178.496 140.683 179.828 139.435 180.884C138.211 181.916 136.543 182.432 134.431 182.432ZM161.635 182.432C159.523 182.432 157.843 181.796 156.595 180.524C155.347 179.228 154.723 177.248 154.723 174.584V164.144H157.747V174.26C157.747 177.98 159.271 179.84 162.319 179.84C163.879 179.84 165.163 179.288 166.171 178.184C167.203 177.056 167.719 175.46 167.719 173.396V164.144H170.743V182H168.007L167.791 178.796C167.239 179.924 166.411 180.812 165.307 181.46C164.227 182.108 163.003 182.432 161.635 182.432ZM175.72 189.92V164.144H178.456L178.744 167.096C179.32 166.232 180.136 165.452 181.192 164.756C182.272 164.06 183.64 163.712 185.296 163.712C187.072 163.712 188.62 164.12 189.94 164.936C191.26 165.752 192.28 166.868 193 168.284C193.744 169.7 194.116 171.308 194.116 173.108C194.116 174.908 193.744 176.516 193 177.932C192.28 179.324 191.248 180.428 189.904 181.244C188.584 182.036 187.036 182.432 185.26 182.432C183.796 182.432 182.488 182.132 181.336 181.532C180.208 180.932 179.344 180.092 178.744 179.012V189.92H175.72ZM184.936 179.804C186.136 179.804 187.192 179.528 188.104 178.976C189.016 178.4 189.736 177.608 190.264 176.6C190.792 175.592 191.056 174.416 191.056 173.072C191.056 171.728 190.792 170.552 190.264 169.544C189.736 168.536 189.016 167.756 188.104 167.204C187.192 166.628 186.136 166.34 184.936 166.34C183.736 166.34 182.68 166.628 181.768 167.204C180.856 167.756 180.136 168.536 179.608 169.544C179.08 170.552 178.816 171.728 178.816 173.072C178.816 174.416 179.08 175.592 179.608 176.6C180.136 177.608 180.856 178.4 181.768 178.976C182.68 179.528 183.736 179.804 184.936 179.804ZM199.37 182.18C198.77 182.18 198.266 181.988 197.858 181.604C197.474 181.196 197.282 180.704 197.282 180.128C197.282 179.552 197.474 179.072 197.858 178.688C198.266 178.28 198.77 178.076 199.37 178.076C199.946 178.076 200.426 178.28 200.81 178.688C201.218 179.072 201.422 179.552 201.422 180.128C201.422 180.704 201.218 181.196 200.81 181.604C200.426 181.988 199.946 182.18 199.37 182.18Z" fill="white"/>
<path d="M52.478 239V225H54.158L61.618 236.22V225H63.298V239H61.618L54.158 227.78V239H52.478ZM70.6871 239.24C69.7538 239.24 68.9138 239.027 68.1671 238.6C67.4204 238.173 66.8271 237.573 66.3871 236.8C65.9604 236.013 65.7471 235.093 65.7471 234.04C65.7471 232.987 65.9671 232.073 66.4071 231.3C66.8471 230.513 67.4404 229.907 68.1871 229.48C68.9471 229.053 69.7938 228.84 70.7271 228.84C71.6604 228.84 72.5004 229.053 73.2471 229.48C73.9938 229.907 74.5804 230.513 75.0071 231.3C75.4471 232.073 75.6671 232.987 75.6671 234.04C75.6671 235.093 75.4471 236.013 75.0071 236.8C74.5671 237.573 73.9671 238.173 73.2071 238.6C72.4604 239.027 71.6204 239.24 70.6871 239.24ZM70.6871 237.8C71.2604 237.8 71.7938 237.66 72.2871 237.38C72.7804 237.1 73.1804 236.68 73.4871 236.12C73.7938 235.56 73.9471 234.867 73.9471 234.04C73.9471 233.213 73.7938 232.52 73.4871 231.96C73.1938 231.4 72.8004 230.98 72.3071 230.7C71.8138 230.42 71.2871 230.28 70.7271 230.28C70.1538 230.28 69.6204 230.42 69.1271 230.7C68.6338 230.98 68.2338 231.4 67.9271 231.96C67.6204 232.52 67.4671 233.213 67.4671 234.04C67.4671 234.867 67.6204 235.56 67.9271 236.12C68.2338 236.68 68.6271 237.1 69.1071 237.38C69.6004 237.66 70.1271 237.8 70.6871 237.8ZM79.632 239L76.732 229.08H78.412L80.512 236.86L82.832 229.08H84.732L87.072 236.86L89.152 229.08H90.852L87.952 239H86.232L83.792 230.82L81.352 239H79.632ZM98.103 239V225H102.703C103.796 225 104.696 225.18 105.403 225.54C106.11 225.9 106.63 226.387 106.963 227C107.31 227.613 107.483 228.307 107.483 229.08C107.483 229.84 107.316 230.527 106.983 231.14C106.65 231.753 106.13 232.247 105.423 232.62C104.716 232.98 103.81 233.16 102.703 233.16H99.783V239H98.103ZM99.783 231.74H102.663C103.783 231.74 104.576 231.507 105.043 231.04C105.523 230.56 105.763 229.907 105.763 229.08C105.763 228.24 105.523 227.587 105.043 227.12C104.576 226.64 103.783 226.4 102.663 226.4H99.783V231.74ZM113.519 239.24C112.586 239.24 111.746 239.027 110.999 238.6C110.252 238.173 109.659 237.573 109.219 236.8C108.792 236.013 108.579 235.093 108.579 234.04C108.579 232.987 108.799 232.073 109.239 231.3C109.679 230.513 110.272 229.907 111.019 229.48C111.779 229.053 112.626 228.84 113.559 228.84C114.492 228.84 115.332 229.053 116.079 229.48C116.826 229.907 117.412 230.513 117.839 231.3C118.279 232.073 118.499 232.987 118.499 234.04C118.499 235.093 118.279 236.013 117.839 236.8C117.399 237.573 116.799 238.173 116.039 238.6C115.292 239.027 114.452 239.24 113.519 239.24ZM113.519 237.8C114.092 237.8 114.626 237.66 115.119 237.38C115.612 237.1 116.012 236.68 116.319 236.12C116.626 235.56 116.779 234.867 116.779 234.04C116.779 233.213 116.626 232.52 116.319 231.96C116.026 231.4 115.632 230.98 115.139 230.7C114.646 230.42 114.119 230.28 113.559 230.28C112.986 230.28 112.452 230.42 111.959 230.7C111.466 230.98 111.066 231.4 110.759 231.96C110.452 232.52 110.299 233.213 110.299 234.04C110.299 234.867 110.452 235.56 110.759 236.12C111.066 236.68 111.459 237.1 111.939 237.38C112.432 237.66 112.959 237.8 113.519 237.8ZM122.464 239L119.564 229.08H121.244L123.344 236.86L125.664 229.08H127.564L129.904 236.86L131.984 229.08H133.684L130.784 239H129.064L126.624 230.82L124.184 239H122.464ZM139.631 239.24C138.684 239.24 137.844 239.027 137.111 238.6C136.378 238.16 135.798 237.553 135.371 236.78C134.958 236.007 134.751 235.093 134.751 234.04C134.751 233 134.958 232.093 135.371 231.32C135.784 230.533 136.358 229.927 137.091 229.5C137.838 229.06 138.698 228.84 139.671 228.84C140.631 228.84 141.458 229.06 142.151 229.5C142.858 229.927 143.398 230.493 143.771 231.2C144.144 231.907 144.331 232.667 144.331 233.48C144.331 233.627 144.324 233.773 144.311 233.92C144.311 234.067 144.311 234.233 144.311 234.42H136.411C136.451 235.18 136.624 235.813 136.931 236.32C137.251 236.813 137.644 237.187 138.111 237.44C138.591 237.693 139.098 237.82 139.631 237.82C140.324 237.82 140.904 237.66 141.371 237.34C141.838 237.02 142.178 236.587 142.391 236.04H144.051C143.784 236.96 143.271 237.727 142.511 238.34C141.764 238.94 140.804 239.24 139.631 239.24ZM139.631 230.26C138.831 230.26 138.118 230.507 137.491 231C136.878 231.48 136.524 232.187 136.431 233.12H142.671C142.631 232.227 142.324 231.527 141.751 231.02C141.178 230.513 140.471 230.26 139.631 230.26ZM146.558 239V229.08H148.078L148.218 230.98C148.524 230.327 148.991 229.807 149.618 229.42C150.244 229.033 151.018 228.84 151.938 228.84V230.6H151.478C150.891 230.6 150.351 230.707 149.858 230.92C149.364 231.12 148.971 231.467 148.678 231.96C148.384 232.453 148.238 233.133 148.238 234V239H146.558ZM157.912 239.24C156.966 239.24 156.126 239.027 155.392 238.6C154.659 238.16 154.079 237.553 153.652 236.78C153.239 236.007 153.032 235.093 153.032 234.04C153.032 233 153.239 232.093 153.652 231.32C154.066 230.533 154.639 229.927 155.372 229.5C156.119 229.06 156.979 228.84 157.952 228.84C158.912 228.84 159.739 229.06 160.432 229.5C161.139 229.927 161.679 230.493 162.052 231.2C162.426 231.907 162.612 232.667 162.612 233.48C162.612 233.627 162.606 233.773 162.592 233.92C162.592 234.067 162.592 234.233 162.592 234.42H154.692C154.732 235.18 154.906 235.813 155.212 236.32C155.532 236.813 155.926 237.187 156.392 237.44C156.872 237.693 157.379 237.82 157.912 237.82C158.606 237.82 159.186 237.66 159.652 237.34C160.119 237.02 160.459 236.587 160.672 236.04H162.332C162.066 236.96 161.552 237.727 160.792 238.34C160.046 238.94 159.086 239.24 157.912 239.24ZM157.912 230.26C157.112 230.26 156.399 230.507 155.772 231C155.159 231.48 154.806 232.187 154.712 233.12H160.952C160.912 232.227 160.606 231.527 160.032 231.02C159.459 230.513 158.752 230.26 157.912 230.26ZM169.339 239.24C168.352 239.24 167.486 239.013 166.739 238.56C166.006 238.107 165.432 237.487 165.019 236.7C164.619 235.913 164.419 235.02 164.419 234.02C164.419 233.02 164.626 232.133 165.039 231.36C165.452 230.573 166.026 229.96 166.759 229.52C167.492 229.067 168.359 228.84 169.359 228.84C170.172 228.84 170.892 229.007 171.519 229.34C172.146 229.673 172.632 230.14 172.979 230.74V224.6H174.659V239H173.139L172.979 237.36C172.659 237.84 172.199 238.273 171.599 238.66C170.999 239.047 170.246 239.24 169.339 239.24ZM169.519 237.78C170.186 237.78 170.772 237.627 171.279 237.32C171.799 237 172.199 236.56 172.479 236C172.772 235.44 172.919 234.787 172.919 234.04C172.919 233.293 172.772 232.64 172.479 232.08C172.199 231.52 171.799 231.087 171.279 230.78C170.772 230.46 170.186 230.3 169.519 230.3C168.866 230.3 168.279 230.46 167.759 230.78C167.252 231.087 166.852 231.52 166.559 232.08C166.279 232.64 166.139 233.293 166.139 234.04C166.139 234.787 166.279 235.44 166.559 236C166.852 236.56 167.252 237 167.759 237.32C168.279 237.627 168.866 237.78 169.519 237.78ZM187.991 239.24C187.177 239.24 186.451 239.073 185.811 238.74C185.184 238.407 184.704 237.94 184.371 237.34L184.211 239H182.691V224.6H184.371V230.72C184.691 230.24 185.144 229.807 185.731 229.42C186.331 229.033 187.091 228.84 188.011 228.84C188.997 228.84 189.857 229.067 190.591 229.52C191.324 229.973 191.891 230.593 192.291 231.38C192.704 232.167 192.911 233.06 192.911 234.06C192.911 235.06 192.704 235.953 192.291 236.74C191.891 237.513 191.317 238.127 190.571 238.58C189.837 239.02 188.977 239.24 187.991 239.24ZM187.811 237.78C188.477 237.78 189.064 237.627 189.571 237.32C190.077 237 190.477 236.56 190.771 236C191.064 235.44 191.211 234.787 191.211 234.04C191.211 233.293 191.064 232.64 190.771 232.08C190.477 231.52 190.077 231.087 189.571 230.78C189.064 230.46 188.477 230.3 187.811 230.3C187.144 230.3 186.557 230.46 186.051 230.78C185.544 231.087 185.144 231.52 184.851 232.08C184.557 232.64 184.411 233.293 184.411 234.04C184.411 234.787 184.557 235.44 184.851 236C185.144 236.56 185.544 237 186.051 237.32C186.557 237.627 187.144 237.78 187.811 237.78ZM195.528 243.4L197.988 238.04H197.408L193.468 229.08H195.288L198.568 236.8L202.048 229.08H203.788L197.288 243.4H195.528Z" fill="white"/>
<path d="M210.955 239V225H219.475V226.38H212.635V231.3H218.455V232.66H212.635V239H210.955ZM225.569 239.24C224.622 239.24 223.782 239.027 223.049 238.6C222.315 238.16 221.735 237.553 221.309 236.78C220.895 236.007 220.689 235.093 220.689 234.04C220.689 233 220.895 232.093 221.309 231.32C221.722 230.533 222.295 229.927 223.029 229.5C223.775 229.06 224.635 228.84 225.609 228.84C226.569 228.84 227.395 229.06 228.089 229.5C228.795 229.927 229.335 230.493 229.709 231.2C230.082 231.907 230.269 232.667 230.269 233.48C230.269 233.627 230.262 233.773 230.249 233.92C230.249 234.067 230.249 234.233 230.249 234.42H222.349C222.389 235.18 222.562 235.813 222.869 236.32C223.189 236.813 223.582 237.187 224.049 237.44C224.529 237.693 225.035 237.82 225.569 237.82C226.262 237.82 226.842 237.66 227.309 237.34C227.775 237.02 228.115 236.587 228.329 236.04H229.989C229.722 236.96 229.209 237.727 228.449 238.34C227.702 238.94 226.742 239.24 225.569 239.24ZM225.569 230.26C224.769 230.26 224.055 230.507 223.429 231C222.815 231.48 222.462 232.187 222.369 233.12H228.609C228.569 232.227 228.262 231.527 227.689 231.02C227.115 230.513 226.409 230.26 225.569 230.26ZM236.995 239.24C236.009 239.24 235.142 239.013 234.395 238.56C233.662 238.107 233.089 237.487 232.675 236.7C232.275 235.913 232.075 235.02 232.075 234.02C232.075 233.02 232.282 232.133 232.695 231.36C233.109 230.573 233.682 229.96 234.415 229.52C235.149 229.067 236.015 228.84 237.015 228.84C237.829 228.84 238.549 229.007 239.175 229.34C239.802 229.673 240.289 230.14 240.635 230.74V224.6H242.315V239H240.795L240.635 237.36C240.315 237.84 239.855 238.273 239.255 238.66C238.655 239.047 237.902 239.24 236.995 239.24ZM237.175 237.78C237.842 237.78 238.429 237.627 238.935 237.32C239.455 237 239.855 236.56 240.135 236C240.429 235.44 240.575 234.787 240.575 234.04C240.575 233.293 240.429 232.64 240.135 232.08C239.855 231.52 239.455 231.087 238.935 230.78C238.429 230.46 237.842 230.3 237.175 230.3C236.522 230.3 235.935 230.46 235.415 230.78C234.909 231.087 234.509 231.52 234.215 232.08C233.935 232.64 233.795 233.293 233.795 234.04C233.795 234.787 233.935 235.44 234.215 236C234.509 236.56 234.909 237 235.415 237.32C235.935 237.627 236.522 237.78 237.175 237.78ZM245.154 239V225H253.814V226.38H246.834V231.26H253.214V232.62H246.834V237.62H253.814V239H245.154ZM255.343 239L258.783 234.04L255.343 229.08H257.163L259.943 233.18L262.743 229.08H264.543L261.103 234.04L264.543 239H262.743L259.943 234.9L257.163 239H255.343Z" fill="#52C675"/>
</svg>
