<svg width="25" height="20" viewBox="0 0 25 20" fill="none" xmlns="http://www.w3.org/2000/svg">
<path d="M21.7902 4.98254C22.7396 4.26233 23.5941 3.39808 24.2586 2.38979C23.4042 2.7739 22.4073 3.06198 21.4104 3.15801C22.4548 2.53383 23.2143 1.57355 23.5941 0.373206C22.6447 0.949372 21.5528 1.3815 20.461 1.62157C19.5116 0.613275 18.2299 0.0371094 16.8058 0.0371094C14.0525 0.0371094 11.8214 2.29376 11.8214 5.07856C11.8214 5.46267 11.8688 5.84678 11.9638 6.2309C7.83385 5.99083 4.13115 3.97424 1.66269 0.949372C1.23545 1.66958 0.998101 2.53383 0.998101 3.49411C0.998101 5.2226 1.85257 6.75905 3.22922 7.67131C2.42222 7.6233 1.61522 7.43124 0.950631 7.04713V7.09514C0.950631 9.54385 2.65957 11.5604 4.93815 12.0406C4.55839 12.1366 4.08368 12.2326 3.65645 12.2326C3.32416 12.2326 3.03933 12.1846 2.70704 12.1366C3.32416 14.1532 5.17551 15.5936 7.35915 15.6416C5.65021 16.986 3.51404 17.8022 1.18798 17.8022C0.760749 17.8022 0.380985 17.7542 0.0012207 17.7062C2.18486 19.1466 4.79574 19.9629 7.64397 19.9629C16.8058 19.9629 21.7902 12.3287 21.7902 5.65473C21.7902 5.41466 21.7902 5.2226 21.7902 4.98254Z" fill="white"/>
</svg>
